#!OML:ASF F:\VICON\USERDATA\INSTALL\rory3\rory3.ASF
:FULLY-SPECIFIED
:DEGREES
88
root -0.45204933727430957 15.182637887111188 6.166037650972081 -5.2080229367489554 2.55215066933712 -2.8194870858473307
lfemur -44.58547392994906 7.120866984624396 -16.77014192696202
ltibia 73.3665059783795
lfoot -16.69516112479644 5.50727165891741
ltoes -21.39509462133507
rfemur -37.415716119170476 -5.814108628921241 21.656888982568685
rtibia 76.19858631871645
rfoot -19.98499127053726 -4.014215207478949
rtoes -3.287779984777271
lowerback 9.710889267840404 0.5542842262837878 -0.8179091038601984
upperback 3.5181913484407743 0.6314642568138207 2.2700906294497343
thorax -3.4467335754621202 0.34210969213348297 2.666228714385428
lowerneck -15.747722055867447 -0.556974383912689 -1.6715586682027166
upperneck 23.040082940303975 -0.8632055186436465 2.181675003998343
head 10.129445638025915 -0.3488209369211488 0.6834852198202892
lclavicle 5.756615170521695e-16 -3.113485084057231e-16
lhumerus -22.441840874063445 -2.537704614596219 86.26356272818818
lradius 18.92984052251718
lwrist 4.240243308847314
lhand -27.084295197314493 -9.88179236700062
lfingers 7.125019999999998
lthumb -0.6990164458262891 19.637380009424238
rclavicle 5.746599457377599e-16 -3.130675149750909e-16
rhumerus -13.955690181882058 -7.061439716493526 -84.31849128550644
rradius 31.946738736572684
rwrist 24.657827007863766
rhand -22.303275027955383 -29.58863882917672
rfingers 7.125019999999998
rthumb 3.956840145442829 -59.87266010993791
89
root -0.40988897930483964 15.327096550872838 6.885757769571132 -3.295219903884062 2.577762750647779 -2.5100031184212455
lfemur -41.95378673130144 6.754326327931257 -16.911734184685802
ltibia 70.04329200435163
lfoot -17.10469066691936 5.46880767127228
ltoes -21.602952921702837
rfemur -35.72061166332097 -5.880148312056122 21.561902456968
rtibia 71.4159908040395
rfoot -21.0813557508997 -4.330649646335524
rtoes -3.3841274984462544
lowerback 7.40745715242889 0.451679985234541 -0.8731803922447345
upperback 3.248290029436406 0.4915288627140238 2.1327585943235423
thorax -2.996417555388373 0.27399987629017786 2.5079743418234948
lowerneck -15.487970138008855 -0.6251534460940538 -1.647888021903249
upperneck 23.338517011235833 -0.9837843325181819 2.475294296817371
head 10.086607976753236 -0.37730360507467475 0.7619328788297497
lclavicle 5.75883280987179e-16 -3.1100448327323377e-16
lhumerus -22.30183472186728 -6.031984778865644 87.64882823792509
lradius 21.570583446153705
lwrist 9.87882221632813
lhand -27.157418603711886 -10.009287892098769
lfingers 7.125019999999998
lthumb -0.7137588694847625 19.578816366097662
rclavicle 5.740651693441391e-16 -3.1397073396649786e-16
rhumerus -12.884582140140278 -5.7136348883112635 -85.0312680223255
rradius 32.68730000034102
rwrist 24.47778657474018
rhand -22.506337127554808 -29.709961603355165
rfingers 7.125019999999998
rthumb 3.9078264583808795 -59.81722418620459
90
root -0.3302877781650913 15.776328452858126 7.211087302910823 -1.2773346687106013 2.6327610160280996 -1.7058965677380278
lfemur -37.62971955347478 6.358985580645383 -17.490502416991855
ltibia 64.09431039298897
lfoot -15.879858426549177 4.502860683238416
ltoes -19.724106538646947
rfemur -30.43150160018037 -5.346002911237346 20.780240081394787
rtibia 62.601238508313074
rfoot -20.36806513985266 -4.120152864802261
rtoes -2.0856662434890145
lowerback 5.857264082469349 0.3451818484041942 -1.1361573205259772
upperback 3.3031304770688243 0.3756395323753569 1.8466554083364222
thorax -2.141400061192991 0.19324516388613092 2.323650579184234
lowerneck -15.022418752503036 -0.6370594113271317 -1.6000579765958924
upperneck 22.789739429180553 -0.98987797558777 2.399268771952939
head 9.765908353432225 -0.37349667390022745 0.7149453721108514
lclavicle 5.769586917348494e-16 -3.093526315251989e-16
lhumerus -22.95548767523247 -8.500614192243606 88.47884850511298
lradius 23.548296000443692
lwrist 15.118959667194313
lhand -27.265701857641478 -10.504575563919545
lfingers 7.125019999999998
lthumb -0.8581241952347369 19.047036760488908
rclavicle 5.742633210238893e-16 -3.136723373339364e-16
rhumerus -13.007671589221685 -5.016294713355814 -85.3222140262892
rradius 33.28240191005645
rwrist 24.00420302530805
rhand -22.653453002408146 -29.428097141561125
rfingers 7.125019999999998
rthumb 3.812760919596874 -59.54675249607434
91
root -0.2457736773766961 16.25192055766961 7.420149423417806 1.3181563481268412 1.9121925673747988 -1.173314573031625
lfemur -34.28226304387404 6.17350570262556 -17.84371700184228
ltibia 59.699900054558114
lfoot -13.800951249145966 3.0033030885713066
ltoes -17.073367657259162
rfemur -25.676443386425113 -4.42169065912568 20.11825745783092
rtibia 53.35027502719394
rfoot -18.81492895269001 -3.4601445961806925
rtoes 0.33837446203330046
lowerback 4.828979714930993 0.45115230333396583 -1.172880563613477
upperback 3.3562352680231498 0.5318424849091599 1.5601084257000613
thorax -1.1080973870711177 0.254437382853277 2.056795315594549
lowerneck -14.525656138691271 -0.5817066255381234 -1.5881045436931482
upperneck 22.604999201160474 -0.8939206325083524 2.279412523149702
head 9.439087695662156 -0.33953823712811615 0.6727417819646294
lclavicle 5.771630716649308e-16 -3.090423360165154e-16
lhumerus -24.11561519096024 -9.353313651289676 88.40307650155899
lradius 24.089211423155746
lwrist 17.30254207712377
lhand -27.22499469039062 -10.630135819146435
lfingers 7.125019999999998
lthumb -0.750180464476486 19.065308825851453
rclavicle 5.745173348038465e-16 -3.1329019706740685e-16
rhumerus -14.160857217015678 -4.759101997480295 -85.24914061108315
rradius 33.45855840831543
rwrist 24.048971131631447
rhand -22.571565548287502 -28.81681880958912
rfingers 7.125019999999998
rthumb 3.9484740986308373 -59.0369162585073
